<mxfile host="app.diagrams.net" modified="2024-05-08T21:06:44.973Z" agent="Mozilla/5.0 (Windows NT 10.0; Win64; x64) AppleWebKit/537.36 (KHTML, like Gecko) Chrome/124.0.0.0 Safari/537.36" etag="HRpuyqN9IqQHGpc9fmc9" version="24.3.1" type="device">
  <diagram id="C5RBs43oDa-KdzZeNtuy" name="Page-1">
    <mxGraphModel dx="490" dy="576" grid="1" gridSize="10" guides="1" tooltips="1" connect="1" arrows="1" fold="1" page="1" pageScale="1" pageWidth="827" pageHeight="1169" math="0" shadow="0">
      <root>
        <mxCell id="WIyWlLk6GJQsqaUBKTNV-0" />
        <mxCell id="WIyWlLk6GJQsqaUBKTNV-1" parent="WIyWlLk6GJQsqaUBKTNV-0" />
        <mxCell id="57TQggoBuKKlkfaO1VZT-23" style="edgeStyle=none;curved=1;rounded=0;orthogonalLoop=1;jettySize=auto;html=1;exitX=0.5;exitY=1;exitDx=0;exitDy=0;exitPerimeter=0;entryX=0.5;entryY=0;entryDx=0;entryDy=0;fontSize=12;startSize=8;endSize=8;" edge="1" parent="WIyWlLk6GJQsqaUBKTNV-1" source="57TQggoBuKKlkfaO1VZT-2" target="57TQggoBuKKlkfaO1VZT-3">
          <mxGeometry relative="1" as="geometry" />
        </mxCell>
        <mxCell id="57TQggoBuKKlkfaO1VZT-2" value="" style="strokeWidth=2;html=1;shape=mxgraph.flowchart.start_2;whiteSpace=wrap;fillColor=#000000;" vertex="1" parent="WIyWlLk6GJQsqaUBKTNV-1">
          <mxGeometry x="495" y="200" width="30" height="30" as="geometry" />
        </mxCell>
        <mxCell id="57TQggoBuKKlkfaO1VZT-22" style="edgeStyle=none;curved=1;rounded=0;orthogonalLoop=1;jettySize=auto;html=1;exitX=0.5;exitY=1;exitDx=0;exitDy=0;fontSize=12;startSize=8;endSize=8;" edge="1" parent="WIyWlLk6GJQsqaUBKTNV-1" source="57TQggoBuKKlkfaO1VZT-3" target="57TQggoBuKKlkfaO1VZT-4">
          <mxGeometry relative="1" as="geometry" />
        </mxCell>
        <mxCell id="57TQggoBuKKlkfaO1VZT-3" value="Login to system" style="rounded=1;whiteSpace=wrap;html=1;" vertex="1" parent="WIyWlLk6GJQsqaUBKTNV-1">
          <mxGeometry x="460" y="250" width="100" height="40" as="geometry" />
        </mxCell>
        <mxCell id="57TQggoBuKKlkfaO1VZT-21" style="edgeStyle=none;curved=1;rounded=0;orthogonalLoop=1;jettySize=auto;html=1;exitX=0.5;exitY=1;exitDx=0;exitDy=0;entryX=0.5;entryY=0;entryDx=0;entryDy=0;fontSize=12;startSize=8;endSize=8;" edge="1" parent="WIyWlLk6GJQsqaUBKTNV-1" source="57TQggoBuKKlkfaO1VZT-4" target="57TQggoBuKKlkfaO1VZT-5">
          <mxGeometry relative="1" as="geometry" />
        </mxCell>
        <mxCell id="57TQggoBuKKlkfaO1VZT-4" value="Navigate to User Management" style="rounded=1;whiteSpace=wrap;html=1;" vertex="1" parent="WIyWlLk6GJQsqaUBKTNV-1">
          <mxGeometry x="460" y="310" width="100" height="40" as="geometry" />
        </mxCell>
        <mxCell id="57TQggoBuKKlkfaO1VZT-20" style="edgeStyle=none;curved=1;rounded=0;orthogonalLoop=1;jettySize=auto;html=1;exitX=0.5;exitY=1;exitDx=0;exitDy=0;fontSize=12;startSize=8;endSize=8;" edge="1" parent="WIyWlLk6GJQsqaUBKTNV-1" source="57TQggoBuKKlkfaO1VZT-5" target="57TQggoBuKKlkfaO1VZT-6">
          <mxGeometry relative="1" as="geometry" />
        </mxCell>
        <mxCell id="57TQggoBuKKlkfaO1VZT-5" value="Select User" style="rounded=1;whiteSpace=wrap;html=1;" vertex="1" parent="WIyWlLk6GJQsqaUBKTNV-1">
          <mxGeometry x="460" y="370" width="100" height="40" as="geometry" />
        </mxCell>
        <mxCell id="57TQggoBuKKlkfaO1VZT-19" style="edgeStyle=none;curved=1;rounded=0;orthogonalLoop=1;jettySize=auto;html=1;exitX=0.5;exitY=1;exitDx=0;exitDy=0;fontSize=12;startSize=8;endSize=8;" edge="1" parent="WIyWlLk6GJQsqaUBKTNV-1" source="57TQggoBuKKlkfaO1VZT-6" target="57TQggoBuKKlkfaO1VZT-7">
          <mxGeometry relative="1" as="geometry" />
        </mxCell>
        <mxCell id="57TQggoBuKKlkfaO1VZT-6" value="Choose Action" style="rounded=1;whiteSpace=wrap;html=1;" vertex="1" parent="WIyWlLk6GJQsqaUBKTNV-1">
          <mxGeometry x="460" y="430" width="100" height="40" as="geometry" />
        </mxCell>
        <mxCell id="57TQggoBuKKlkfaO1VZT-18" style="edgeStyle=none;curved=1;rounded=0;orthogonalLoop=1;jettySize=auto;html=1;exitX=0.5;exitY=1;exitDx=0;exitDy=0;fontSize=12;startSize=8;endSize=8;" edge="1" parent="WIyWlLk6GJQsqaUBKTNV-1" source="57TQggoBuKKlkfaO1VZT-7" target="57TQggoBuKKlkfaO1VZT-8">
          <mxGeometry relative="1" as="geometry" />
        </mxCell>
        <mxCell id="57TQggoBuKKlkfaO1VZT-7" value="Specify duration" style="rounded=1;whiteSpace=wrap;html=1;" vertex="1" parent="WIyWlLk6GJQsqaUBKTNV-1">
          <mxGeometry x="460" y="490" width="100" height="40" as="geometry" />
        </mxCell>
        <mxCell id="57TQggoBuKKlkfaO1VZT-17" style="edgeStyle=none;curved=1;rounded=0;orthogonalLoop=1;jettySize=auto;html=1;exitX=0.5;exitY=1;exitDx=0;exitDy=0;entryX=0.5;entryY=0;entryDx=0;entryDy=0;fontSize=12;startSize=8;endSize=8;" edge="1" parent="WIyWlLk6GJQsqaUBKTNV-1" source="57TQggoBuKKlkfaO1VZT-8" target="57TQggoBuKKlkfaO1VZT-10">
          <mxGeometry relative="1" as="geometry" />
        </mxCell>
        <mxCell id="57TQggoBuKKlkfaO1VZT-8" value="Save changes" style="rounded=1;whiteSpace=wrap;html=1;" vertex="1" parent="WIyWlLk6GJQsqaUBKTNV-1">
          <mxGeometry x="460" y="554.5" width="100" height="40" as="geometry" />
        </mxCell>
        <mxCell id="57TQggoBuKKlkfaO1VZT-13" value="success" style="edgeStyle=none;curved=1;rounded=0;orthogonalLoop=1;jettySize=auto;html=1;exitX=0.5;exitY=1;exitDx=0;exitDy=0;entryX=0.5;entryY=0;entryDx=0;entryDy=0;fontSize=12;startSize=8;endSize=8;" edge="1" parent="WIyWlLk6GJQsqaUBKTNV-1" source="57TQggoBuKKlkfaO1VZT-10" target="57TQggoBuKKlkfaO1VZT-11">
          <mxGeometry relative="1" as="geometry" />
        </mxCell>
        <mxCell id="57TQggoBuKKlkfaO1VZT-10" value="" style="rhombus;whiteSpace=wrap;html=1;" vertex="1" parent="WIyWlLk6GJQsqaUBKTNV-1">
          <mxGeometry x="490" y="620" width="40" height="40" as="geometry" />
        </mxCell>
        <mxCell id="57TQggoBuKKlkfaO1VZT-16" style="edgeStyle=none;curved=1;rounded=0;orthogonalLoop=1;jettySize=auto;html=1;exitX=0.5;exitY=1;exitDx=0;exitDy=0;fontSize=12;startSize=8;endSize=8;" edge="1" parent="WIyWlLk6GJQsqaUBKTNV-1" source="57TQggoBuKKlkfaO1VZT-11" target="57TQggoBuKKlkfaO1VZT-12">
          <mxGeometry relative="1" as="geometry" />
        </mxCell>
        <mxCell id="57TQggoBuKKlkfaO1VZT-11" value="Notify users" style="rounded=1;whiteSpace=wrap;html=1;" vertex="1" parent="WIyWlLk6GJQsqaUBKTNV-1">
          <mxGeometry x="460" y="680" width="100" height="40" as="geometry" />
        </mxCell>
        <mxCell id="57TQggoBuKKlkfaO1VZT-12" value="" style="ellipse;html=1;shape=endState;fillColor=#000000;strokeColor=#000000;" vertex="1" parent="WIyWlLk6GJQsqaUBKTNV-1">
          <mxGeometry x="495" y="750" width="30" height="30" as="geometry" />
        </mxCell>
        <mxCell id="57TQggoBuKKlkfaO1VZT-15" value="fail" style="endArrow=classic;html=1;rounded=0;fontSize=12;startSize=8;endSize=8;curved=1;entryX=1;entryY=0.5;entryDx=0;entryDy=0;exitX=1;exitY=0.5;exitDx=0;exitDy=0;" edge="1" parent="WIyWlLk6GJQsqaUBKTNV-1" source="57TQggoBuKKlkfaO1VZT-10" target="57TQggoBuKKlkfaO1VZT-12">
          <mxGeometry width="50" height="50" relative="1" as="geometry">
            <mxPoint x="530" y="644.5" as="sourcePoint" />
            <mxPoint x="580" y="594.5" as="targetPoint" />
            <Array as="points">
              <mxPoint x="630" y="620" />
              <mxPoint x="610" y="710" />
              <mxPoint x="620" y="770" />
            </Array>
          </mxGeometry>
        </mxCell>
      </root>
    </mxGraphModel>
  </diagram>
</mxfile>
